<?xml version="1.0" encoding="UTF-8" standalone="no"?>
<svg width="231px" height="44px" viewBox="0 0 231 44" version="1.1" xmlns="http://www.w3.org/2000/svg" xmlns:xlink="http://www.w3.org/1999/xlink" xmlns:sketch="http://www.bohemiancoding.com/sketch/ns">
    <!-- Generator: Sketch 3.2.2 (9983) - http://www.bohemiancoding.com/sketch -->
    <title>acf-logo</title>
    <desc>Created with Sketch.</desc>
    <defs></defs>
    <g id="Page-1" stroke="none" stroke-width="1" fill="none" fill-rule="evenodd" sketch:type="MSPage">
        <g id="acf-logo" sketch:type="MSLayerGroup" fill-opacity="0.2" fill="#000000">
            <g id="Group" sketch:type="MSShapeGroup">
                <g id="Shape">
                    <g>
                        <path d="M25.3,12.5 L22.6,11.6 C22.4,11.5 22.2,11.6 22.1,11.7 L12.4,21.5 C12.2,21.8 12.2,22.2 12.4,22.5 L22,32.3 C22.2,32.4 22.4,32.4 22.5,32.4 L25.3,31.5 C25.5,31.4 25.6,31.1 25.4,30.9 L16.5,22 L25.4,13.1 C25.6,12.9 25.5,12.6 25.3,12.5"></path>
                        <path d="M40.1,13.1 L49,22 L40.1,30.9 C39.9,31.1 40,31.4 40.2,31.5 L42.9,32.4 C43.1,32.5 43.3,32.4 43.4,32.3 L53,22.5 C53.3,22.2 53.3,21.8 53,21.5 L43.4,11.7 C43.3,11.6 43.1,11.6 42.9,11.6 L40.2,12.5 C40,12.6 39.9,12.9 40.1,13.1"></path>
                        <path d="M38.6,19.8 L34.8,19.3 L33,15.7 C32.9,15.5 32.6,15.5 32.4,15.7 L30.7,19.3 L26.9,19.8 C26.6,19.9 26.5,20.2 26.7,20.4 L29.5,23.2 L28.8,27.1 C28.8,27.4 29.1,27.6 29.3,27.4 L32.7,25.6 L36.2,27.4 C36.4,27.6 36.7,27.4 36.7,27.1 L36,23.2 L38.8,20.4 C39,20.2 38.9,19.9 38.6,19.8"></path>
                        <path d="M0.5,44 L65,44 C65.3,44 65.5,43.8 65.5,43.5 L65.5,0.5 C65.5,0.2 65.3,0 65,0 L0.5,0 C0.2,0 0,0.2 0,0.5 L0,43.5 C0,43.8 0.2,44 0.5,44 L0.5,44 L0.5,44 Z M3.3,3.3 L62.2,3.3 L62.2,40.7 L3.3,40.7 L3.3,3.3 L3.3,3.3 Z"></path>
                        <path d="M84.4,3.5 L78.8,19.1 L80.3,19.1 L81.6,15.5 L88.5,15.5 L88.5,15.6 L89.7,19.1 L91.3,19.1 L85.7,3.5 L84.4,3.5 L84.4,3.5 Z M82,14.2 L85.1,5.5 L88,14.2 L82,14.2 L82,14.2 Z"></path>
                        <path d="M101.3,11.9 C103.3,11.5 104.6,9.9 104.6,7.8 C104.6,5.1 102.8,3.5 100.1,3.5 L94.2,3.5 L94.2,19.1 L95.7,19.1 L95.7,12.1 L99.5,12.1 L103.1,19.1 L104.8,19.1 L101.2,11.9 L101.3,11.9 L101.3,11.9 Z M95.7,10.7 L95.7,4.8 L99.9,4.8 C101.9,4.8 103.1,5.9 103.1,7.8 C103.1,9.6 101.9,10.7 99.9,10.7 L95.7,10.7 L95.7,10.7 Z"></path>
                        <path d="M114.1,9.4 L118.8,3.5 L117,3.5 L109.7,12.7 L109.7,3.5 L108.2,3.5 L108.2,19.1 L109.7,19.1 L109.7,14.7 L113.1,10.6 L117.8,19.1 L119.6,19.1 L114.1,9.5 L114.1,9.4"></path>
                        <path d="M127.3,3.5 L121.6,19.1 L123.2,19.1 L124.4,15.5 L131.3,15.5 L131.3,15.6 L132.6,19.1 L134.2,19.1 L128.5,3.5 L127.3,3.5 L127.3,3.5 Z M124.9,14.2 L127.9,5.5 L130.9,14.2 L124.9,14.2 L124.9,14.2 Z"></path>
                        <path d="M148.3,19.1 L148.3,3.5 L146.9,3.5 L146.9,16.3 L146.7,16 L138.5,3.5 L137.1,3.5 L137.1,19.1 L138.6,19.1 L138.6,6.2 L138.7,6.5 L146.9,19.1 L148.3,19.1"></path>
                        <path d="M160.8,11.7 C160.1,11.2 159.4,10.9 158,10.7 L156.3,10.4 C155.4,10.2 154.6,9.9 154.1,9.5 C153.7,9.1 153.4,8.5 153.4,7.6 C153.4,5.8 154.7,4.6 156.8,4.6 C158.3,4.6 159.3,5 160.4,5.9 L161.3,5 C160,3.8 158.7,3.3 156.8,3.3 C153.9,3.3 152,5 152,7.7 C152,8.9 152.3,9.9 153.1,10.6 C153.8,11.2 154.7,11.6 155.9,11.8 L157.7,12 C158.8,12.2 159.2,12.3 159.8,12.8 C160.3,13.3 160.5,14 160.5,14.8 C160.5,16.7 159.2,17.9 156.8,17.9 C155,17.9 153.8,17.4 152.6,16.2 L151.6,17.2 C153,18.6 154.5,19.2 156.8,19.2 C160,19.2 162,17.5 162,14.8 C162,13.5 161.6,12.5 160.8,11.7"></path>
                        <path d="M169.5,3.5 L163.9,19.1 L165.5,19.1 L166.7,15.5 L173.6,15.5 L173.6,15.6 L174.8,19.1 L176.4,19.1 L170.8,3.5 L169.5,3.5 L169.5,3.5 Z M167.2,14.2 L170.2,5.5 L173.2,14.2 L167.2,14.2 L167.2,14.2 Z"></path>
                        <path d="M187.6,11.7 C186.9,11.2 186.2,10.9 184.8,10.7 L183.1,10.4 C182.3,10.2 181.5,9.9 181,9.5 C180.5,9.1 180.3,8.5 180.3,7.6 C180.3,5.8 181.6,4.6 183.6,4.6 C185.1,4.6 186.2,5 187.2,5.9 L188.2,5 C186.9,3.8 185.6,3.3 183.7,3.3 C180.7,3.3 178.8,5 178.8,7.7 C178.8,8.9 179.2,9.9 180,10.6 C180.6,11.2 181.6,11.6 182.8,11.8 L184.6,12 C185.7,12.2 186.1,12.3 186.6,12.8 C187.1,13.3 187.4,14 187.4,14.8 C187.4,16.7 186,17.9 183.7,17.9 C181.9,17.9 180.7,17.4 179.4,16.2 L178.4,17.2 C179.9,18.6 181.4,19.2 183.6,19.2 C186.8,19.2 188.9,17.5 188.9,14.8 C188.9,13.5 188.5,12.5 187.6,11.7"></path>
                        <path d="M87.8,29.3 L89.3,29.3 C88.8,26.5 86.8,24.8 84.1,24.8 C82.6,24.8 81.2,25.4 80.2,26.4 C78.7,27.9 78.7,29.4 78.7,32.7 C78.7,36.1 78.7,37.6 80.2,39.1 C81.2,40.1 82.6,40.7 84.1,40.7 C86.8,40.7 88.8,38.9 89.3,36.1 L87.8,36.1 C87.4,38.1 85.9,39.3 84.1,39.3 C83,39.3 82,38.9 81.3,38.2 C80.3,37.1 80.2,36 80.2,32.7 C80.2,29.5 80.3,28.3 81.3,27.3 C82,26.6 83,26.1 84.1,26.1 C85.9,26.1 87.3,27.3 87.8,29.3"></path>
                        <path d="M97.8,24.8 C96.3,24.8 94.9,25.4 93.9,26.4 C92.5,27.9 92.5,29.4 92.5,32.7 C92.5,36.1 92.5,37.6 93.9,39.1 C94.9,40.1 96.3,40.7 97.8,40.7 C99.3,40.7 100.7,40.1 101.7,39.1 C103.1,37.6 103.1,36.1 103.1,32.7 C103.1,29.4 103.1,27.9 101.7,26.4 C100.7,25.4 99.3,24.8 97.8,24.8 L97.8,24.8 L97.8,24.8 Z M100.5,38.2 C99.8,38.9 98.8,39.3 97.8,39.3 C96.8,39.3 95.8,38.9 95.1,38.2 C94,37.1 94,36 94,32.7 C94,29.5 94,28.4 95.1,27.3 C95.8,26.6 96.8,26.1 97.8,26.1 C98.8,26.1 99.8,26.6 100.5,27.3 C101.6,28.4 101.6,29.5 101.6,32.7 C101.6,36 101.6,37.1 100.5,38.2 L100.5,38.2 L100.5,38.2 Z"></path>
                        <path d="M115.9,26.4 C115,25.4 113.7,24.9 112.1,24.9 L106.9,24.9 L106.9,40.5 L112.1,40.5 C113.7,40.5 115,40 115.9,39.1 C117.4,37.6 117.4,35 117.4,32.9 L117.4,32.6 L117.4,32.2 C117.4,30.1 117.4,27.9 115.9,26.4 L115.9,26.4 L115.9,26.4 Z M115.9,32.8 C115.9,34.7 115.9,36.9 114.9,38 C114.1,38.8 113.1,39.2 111.8,39.2 L108.3,39.2 L108.3,26.3 L111.8,26.3 C113.1,26.3 114.1,26.7 114.9,27.5 C115.9,28.6 115.9,30.5 115.9,32.3 L115.9,32.8 L115.9,32.8 Z"></path>
                        <path d="M122.6,33.3 L129.4,33.3 L129.4,32 L122.6,32 L122.6,26.3 L130.6,26.3 L130.6,24.9 L121.1,24.9 L121.1,40.5 L130.6,40.5 L130.6,39.2 L122.6,39.2 L122.6,33.3"></path>
                        <path d="M147.8,32.2 L141.1,32.2 L141.1,26.3 L149,26.3 L149,24.9 L139.6,24.9 L139.6,40.5 L141.1,40.5 L141.1,33.6 L147.8,33.6 L147.8,32.2"></path>
                        <path d="M153.6,33.3 L160.4,33.3 L160.4,32 L153.6,32 L153.6,26.3 L161.6,26.3 L161.6,24.9 L152.1,24.9 L152.1,40.5 L161.6,40.5 L161.6,39.2 L153.6,39.2 L153.6,33.3"></path>
                        <path d="M173.4,33.2 C172.7,32.6 172,32.3 170.6,32.1 L168.9,31.9 C168,31.7 167.2,31.4 166.8,31 C166.3,30.6 166,29.9 166,29.1 C166,27.3 167.3,26.1 169.4,26.1 C170.9,26.1 172,26.5 173,27.4 L173.9,26.5 C172.6,25.3 171.4,24.8 169.4,24.8 C166.5,24.8 164.6,26.5 164.6,29.2 C164.6,30.4 164.9,31.4 165.7,32.1 C166.4,32.6 167.3,33 168.5,33.2 L170.3,33.5 C171.4,33.7 171.9,33.8 172.4,34.3 C172.9,34.7 173.2,35.4 173.2,36.3 C173.2,38.2 171.8,39.3 169.4,39.3 C167.6,39.3 166.4,38.9 165.2,37.6 L164.2,38.7 C165.6,40.1 167.1,40.7 169.4,40.7 C172.6,40.7 174.6,38.9 174.6,36.3 C174.6,35 174.2,33.9 173.4,33.2"></path>
                        <path d="M181.3,40.5 L182.8,40.5 L182.8,26.3 L187.3,26.3 L187.3,24.9 L176.9,24.9 L176.9,26.3 L181.3,26.3 L181.3,40.5"></path>
                        <path d="M190.4,24.9 L191.9,24.9 L191.9,40.5 L190.4,40.5 L190.4,24.9 L190.4,24.9 Z"></path>
                        <path d="M196.3,24.9 L194.7,24.9 L199.7,40.5 L201,40.5 L206,24.9 L204.4,24.9 L200.4,37.9 L196.3,24.9"></path>
                        <path d="M211.2,24.9 L205.6,40.5 L207.2,40.5 L208.4,37 L215.3,37 L216.5,40.5 L218.1,40.5 L212.5,24.9 L211.2,24.9 L211.2,24.9 Z M208.8,35.7 L211.9,27 L214.9,35.7 L208.8,35.7 L208.8,35.7 Z"></path>
                        <path d="M222.5,24.9 L221,24.9 L221,40.5 L230.4,40.5 L230.4,39.2 L222.5,39.2 L222.5,24.9"></path>
                    </g>
                </g>
            </g>
        </g>
    </g>
</svg>