<?xml version="1.0" encoding="UTF-8" standalone="no"?>
<svg width="689px" height="376px" viewBox="0 0 689 376" version="1.1" xmlns="http://www.w3.org/2000/svg" xmlns:xlink="http://www.w3.org/1999/xlink" xmlns:sketch="http://www.bohemiancoding.com/sketch/ns">
    <!-- Generator: Sketch 3.2.2 (9983) - http://www.bohemiancoding.com/sketch -->
    <title>Path 1</title>
    <desc>Created with Sketch.</desc>
    <defs></defs>
    <g id="Page-1" stroke="none" stroke-width="1" fill="none" fill-rule="evenodd" sketch:type="MSPage">
        <path d="M129.183594,31.8007812 L153.871094,59.3203125 L193.539062,24.1367188 L214.347656,49.9140625 L251.921875,18.9140625 L297.859375,62.4101562 L307.960938,36.7226562 L351.457031,60.3632813 L393.480469,0.98046875 L423.394531,44.4765625 L465.800781,24.40625 L509.949219,43.171875 L518.613281,18.65625 L580.875,62.5429688 L600.640625,26.1054688 L625.066406,47.65625 L669.914062,31.2851562 L659.160156,82.75 L687.722656,114.75 L647.316406,163.472656 L670.304688,186.765625 L646.710938,215.632812 L676.96875,255.992188 L648.449219,311.984375 L620.191406,290.390625 L587.492188,331.886719 L571.46875,297.839844 L526.320312,339.851562 L466.105469,298.445312 L426.089844,322.390625 L406.976562,294.265625 L369.355469,353.742187 L309.488281,293.132812 L294.859375,333.539062 L245.136719,294.871094 L231.898438,321.300781 L211.089844,296.960938 L177.300781,375.898438 L120.914063,310.894531 L103.148438,339.460938 L68.1015625,297.402344 L100.5,242.757813 L0.26953125,203.394531 L108.554688,186.328125 L37.9765625,142.875 L102.632812,135.210938 L70.6328125,88.3671875 L118.65625,72.7382812 L69.5859375,41.4296875 L129.183594,31.8007812 Z" id="Path-1" stroke="#D0216C" sketch:type="MSShapeGroup"></path>
    </g>
</svg>